<svg xmlns="http://www.w3.org/2000/svg" xmlns:xlink="http://www.w3.org/1999/xlink" version="1.1" x="0px" y="0px" viewBox="0 0 100 125" style="enable-background:new 0 0 100 100;" xml:space="preserve"><path d="M53,72c0,0.7,0.1,1.3,0.1,2H31c-1.1,0-2-0.9-2-2v-6c0-8.2,6.2-15,14.3-15.9C39.5,47.8,37,43.7,37,39c0-7.2,5.8-13,13-13  s13,5.8,13,13c0,4.7-2.5,8.8-6.3,11.1c4.4,0.5,8.2,2.7,10.8,6C59.4,56.8,53,63.7,53,72z M77.5,80.5c-4.7,4.7-12.3,4.7-17,0  s-4.7-12.3,0-17c4.7-4.7,12.3-4.7,17,0S82.2,75.8,77.5,80.5z M70.5,79c0-0.8-0.7-1.5-1.5-1.5s-1.5,0.7-1.5,1.5  c0,0.8,0.7,1.5,1.5,1.5S70.5,79.8,70.5,79z M74,69c0-2.8-2.2-5-5-5s-5,2.2-5,5c0,0.6,0.4,1,1,1s1-0.4,1-1c0-1.7,1.3-3,3-3s3,1.3,3,3  s-1.3,3-3,3c-0.6,0-1,0.4-1,1v2c0,0.6,0.4,1,1,1s1-0.4,1-1v-1.1C72.3,73.4,74,71.4,74,69z"/><text x="0" y="115" fill="#000000" font-size="5px" font-weight="bold" font-family="'Helvetica Neue', Helvetica, Arial-Unicode, Arial, Sans-serif">Created by Setyo Ari Wibowo</text><text x="0" y="120" fill="#000000" font-size="5px" font-weight="bold" font-family="'Helvetica Neue', Helvetica, Arial-Unicode, Arial, Sans-serif">from the Noun Project</text></svg>